<?xml version="1.0" encoding="UTF-8" standalone="no"?><!DOCTYPE svg PUBLIC "-//W3C//DTD SVG 1.1//EN" "http://www.w3.org/Graphics/SVG/1.1/DTD/svg11.dtd"><svg width="105px" height="111px" version="1.1" xmlns="http://www.w3.org/2000/svg" xmlns:xlink="http://www.w3.org/1999/xlink" xml:space="preserve" xmlns:serif="http://www.serif.com/" style="fill-rule:evenodd;clip-rule:evenodd;stroke-linejoin:round;stroke-miterlimit:2;"><g transform="matrix(1,0,0,1,-3.58652,-14.599973)"><g transform="matrix(1,0,0,1,0,3.486555)"><path d="M85,69C88,69 90,72 90,74C90,77 88,79 85,79C83,79 80,77 80,74C80,72 83,69 85,69ZM56,37C58,37 59,39 59,40C59,42 58,43 56,43C54,43 53,42 53,40C53,39 54,37 56,37ZM97,11C100,11 103,14 103,17C103,21 100,23 97,23C93,23 90,21 90,17C90,14 93,11 97,11ZM22,17C22,35 31,59 49,77C67,95 90,104 108,104C84,128 45,128 22,104C-2,80 -2,41 22,17ZM56,102C54,102 53,104 53,106C53,107 54,109 56,109C58,109 59,107 59,106C59,104 58,102 56,102Z" style="fill:white;"/></g></g></svg>