<?xml version="1.0" encoding="UTF-8" standalone="no"?><!DOCTYPE svg PUBLIC "-//W3C//DTD SVG 1.1//EN" "http://www.w3.org/Graphics/SVG/1.1/DTD/svg11.dtd"><svg width="124px" height="124px" version="1.1" xmlns="http://www.w3.org/2000/svg" xmlns:xlink="http://www.w3.org/1999/xlink" xml:space="preserve" xmlns:serif="http://www.serif.com/" style="fill-rule:evenodd;clip-rule:evenodd;stroke-linejoin:round;stroke-miterlimit:2;"><g transform="matrix(1,0,0,1,-2.58652,-2.375868)"><g id="IcoLight.svg"><g transform="matrix(1.397306,0,0,1.397306,-31.164972,-27.225845)"><path d="M27,81C26,77 25,73 24,69L36,68C36,71 37,74 38,77L27,81ZM38,33L46,42C44,44 42,46 40,49L30,43C32,39 35,36 38,33ZM75,22L73,33C71,33 70,33 68,33C67,33 65,33 63,33L62,22C64,21 66,21 68,21C70,21 73,21 75,22ZM106,43L96,49C95,46 92,44 90,42L98,33C101,36 104,39 106,43ZM109,81L98,77C99,74 100,71 100,68L112,69C112,73 111,77 109,81ZM81,107L78,96C81,95 84,94 86,92L93,102C89,104 86,106 81,107ZM43,102L50,92C53,94 56,95 59,96L55,107C51,106 47,104 43,102Z"/></g><g transform="matrix(0.746352,0,0,0.746352,13.267041,15.272938)"><circle cx="68" cy="65" r="44"/></g></g></g></svg>